<?xml version="1.0" encoding="UTF-8"?>
<svg xmlns="http://www.w3.org/2000/svg" version="1.1" xmlns:xlink="http://www.w3.org/1999/xlink" viewBox="0 0 100 100">
  <defs>
    <style>
      .cls-1 {
        fill: url(#linear-gradient-2);
      }

      .cls-2 {
        fill: #6747ed;
      }

      .cls-3 {
        mix-blend-mode: color-dodge;
      }

      .cls-3, .cls-4, .cls-5 {
        fill: #fff;
      }

      .cls-3, .cls-6 {
        isolation: isolate;
      }

      .cls-7 {
        fill: #0e0f23;
      }

      .cls-8 {
        fill: #2891f9;
      }

      .cls-8, .cls-5, .cls-9, .cls-10, .cls-11 {
        fill-rule: evenodd;
      }

      .cls-12 {
        fill: none;
      }

      .cls-13 {
        fill: #f7931a;
      }

      .cls-14 {
        fill: url(#linear-gradient-3);
      }

      .cls-15 {
        fill: #f5ac37;
      }

      .cls-16 {
        fill: #627eea;
      }

      .cls-17 {
        fill: #26a17b;
      }

      .cls-18 {
        fill: #fefefd;
      }

      .cls-19 {
        fill: #070a0e;
      }

      .cls-9 {
        fill: #00d395;
      }

      .cls-20 {
        display: none;
      }

      .cls-21 {
        fill: #0f8ff8;
      }

      .cls-10 {
        fill: #2bbdf7;
      }

      .cls-11 {
        fill: #2b6def;
      }

      .cls-22 {
        fill: #2775ca;
      }

      .cls-23 {
        fill: url(#linear-gradient);
      }

      .cls-24 {
        clip-path: url(#clippath);
      }
    </style>
    <clipPath id="clippath">
      <rect class="cls-12" x="23" y="23.9" width="54.1" height="53.2"/>
    </clipPath>
    <linearGradient id="linear-gradient" x1="-493.7" y1="563.8" x2="-493.6" y2="564.3" gradientTransform="translate(27611.9 29173.3) scale(57.1 -48)" gradientUnits="userSpaceOnUse">
      <stop offset="0" stop-color="#03b8ff"/>
      <stop offset="1" stop-color="#fa52a0"/>
    </linearGradient>
    <linearGradient id="linear-gradient-2" x1="-494.9" y1="555.6" x2="-494.8" y2="556.4" gradientTransform="translate(23059.6 22961.5) scale(47.7 -37.5)" xlink:href="#linear-gradient"/>
    <linearGradient id="linear-gradient-3" x1="-494.7" y1="556.3" x2="-494.5" y2="557.1" gradientTransform="translate(22973.9 23123.1) scale(47.6 -37.7)" xlink:href="#linear-gradient"/>
  </defs>
  <!-- Generator: Adobe Illustrator 28.6.0, SVG Export Plug-In . SVG Version: 1.2.0 Build 709)  -->
  <g class="cls-6">
    <g id="Layer_3" class="cls-20">
      <g id="Group_12-3">
        <rect id="Rectangle_6-2" class="cls-3" x=".5" y=".5" width="99.1" height="99.1" rx="22.5" ry="22.5"/>
        <g id="sushiswap-sushi-logo-3">
          <g class="cls-24">
            <g id="Group_1-3">
              <path id="Path_15-3" class="cls-23" d="M34.1,28.9l41.2,28.1-10.2,15.1-41.2-28.4,10.2-14.8Z"/>
              <path id="Path_16-3" class="cls-1" d="M75.3,57c-3.5,5.1-15.5,3.1-26.8-4.9-11.5-7.8-17.7-18.2-14.4-23.3,3.5-5.1,15.5-3.1,26.8,4.9,11.5,7.5,17.7,18.2,14.4,23.3Z"/>
              <path id="Path_17-3" class="cls-14" d="M65.1,71.8c-3.5,5.1-15.5,3.1-26.8-4.9s-17.7-18.2-14.2-23.5c3.5-5.1,15.5-3.1,26.8,4.9,11.3,8,17.5,18.4,14.2,23.5Z"/>
              <path id="Path_18-3" class="cls-7" d="M75.3,57h0l-10.2,15.1h0c-3.5,5.1-15.5,2.9-26.8-4.9-2.2-1.5-4.2-3.1-6.2-4.9,2.2-.4,4.1-1.6,5.5-3.3,3.5-3.8,5.3-4.7,6.9-4.4,1.6,0,3.3,1.6,6.2,5.3s6.9,4.9,9.3,2.9c.2-.2.4-.2.7-.4,2-1.6,2.7-2.2,6.4-9.3,1.6-2.9,5-4.3,8.2-3.3,1.1,2.9,1.1,5.3,0,7.3Z"/>
              <path id="Path_19-3" class="cls-5" d="M73.8,56.1c-3.1,4.4-14,2.2-24.4-5.1-10.6-7.3-16.8-16.6-13.7-21,3.1-4.4,14-2.2,24.4,5.1,10.4,7.3,16.6,16.6,13.7,21ZM64,49.5c-1.6,2.2-6.9,1.1-12.2-2.4-5.1-3.5-8.2-8.2-6.6-10.4s6.9-1.1,12.2,2.4c5.1,3.5,8.2,8.2,6.6,10.4Z"/>
              <path id="Path_20-3" class="cls-4" d="M33.2,34c0-.2-.2-.4-.4-.2s-.4.2-.4.4c.2.5.4,1,.4,1.6,0,.2.2.4.4.2.2,0,.4-.2.2-.4,0-.5,0-1.1-.2-1.6Z"/>
              <path id="Path_21-3" class="cls-4" d="M34.3,37.5c0-.2-.2-.4-.4-.2s-.2.2-.2.4c2.4,5.5,7.5,11.5,14.2,16,.2.2.4,0,.7,0,.2-.2,0-.4,0-.7-6.9-4.4-11.7-10.2-14.2-15.5Z"/>
              <path id="Path_22-3" class="cls-4" d="M61.2,59.2c-.2,0-.4,0-.4.2s0,.4.2.4c.7.2,1.6.4,2.2.7.2,0,.4,0,.4-.2s0-.4-.2-.4c-.7-.2-1.6-.4-2.2-.7Z"/>
              <path id="Path_23-3" class="cls-4" d="M65.1,60.1c-.2,0-.4.2-.4.4,0,.2.2.4.4.4h0c1.8.3,3.5.4,5.3.2.2,0,.4-.2.4-.4,0-.2-.2-.4-.4-.4h0c-1.8.1-3.6,0-5.3-.2Z"/>
            </g>
          </g>
        </g>
      </g>
    </g>
    <g id="Layer_4" class="cls-20">
      <g id="Group_14-3">
        <rect id="Rectangle_8-3" class="cls-16" x=".5" y=".5" width="99.1" height="99.1" rx="22.5" ry="22.5"/>
        <g id="Group_3-3">
          <path id="Path_27-3" d="M49.5,20.9v21.3l18,8-18-29.4Z"/>
          <path id="Path_28-3" class="cls-4" d="M49.5,20.9l-18,29.4,18-8v-21.3Z"/>
          <path id="Path_29-3" d="M49.5,65.1v14.5l18-24.9-18,10.5Z"/>
          <path id="Path_30-3" class="cls-4" d="M49.5,79.6v-14.5l-18-10.5,18,24.9Z"/>
          <path id="Path_31-3" d="M49.5,61.3l18-10.5-18-8v18.5Z"/>
          <path id="Path_32-3" d="M31.4,50.8l18,10.5v-18.5l-18,8Z"/>
        </g>
      </g>
    </g>
    <g id="Layer_5" class="cls-20">
      <g id="Group_13-3">
        <rect id="Rectangle_7-4" class="cls-17" x=".5" y=".5" width="99.1" height="99.1" rx="22.5" ry="22.5"/>
        <path id="Path_3-3" class="cls-5" d="M54.6,51.3h0c-.3,0-1.7,0-4.9,0s-4.4,0-5,0h0c-9.8-.4-17.2-1.9-17.2-3.8s7.3-3.4,17.2-3.8v6.1c.6,0,2.5.1,5,.1s4.6-.1,4.9-.1v-6.1c9.8.4,17.2,2,17.2,3.8s-7.3,3.4-17.2,3.8M54.6,43.1v-5.5h13.7v-8.3H31v8.3h13.7v5.5c-11.1.5-19.5,2.5-19.5,4.9s8.4,4.4,19.5,4.9v17.5h9.9v-17.5c11.1-.5,19.5-2.5,19.5-4.9s-8.4-4.4-19.5-4.9"/>
      </g>
    </g>
    <g id="Layer_6" class="cls-20">
      <g id="Group_11-3">
        <rect id="Rectangle_10-3" class="cls-22" x=".5" width="99.1" height="100" rx="22.5" ry="22.5"/>
        <g id="Group_4-3">
          <path id="Path_25-3" class="cls-4" d="M60.8,55.9c0-6-3.6-8-10.8-8.9-5.1-.7-6.1-2-6.1-4.4s1.7-3.9,5.1-3.9,4.8,1,5.6,3.6c.2.5.7.8,1.2.9h2.7c.6,0,1.2-.5,1.2-1.1,0,0,0,0,0,0v-.2c-.7-3.8-3.8-6.7-7.7-7v-4.1c0-.7-.5-1.2-1.4-1.4h-2.6c-.7,0-1.2.5-1.4,1.4v3.9c-5.1.7-8.4,4.1-8.4,8.4s3.4,7.9,10.6,8.7c4.8.9,6.3,1.9,6.3,4.6s-2.4,4.6-5.6,4.6-6-1.9-6.5-4.4c-.1-.6-.6-1-1.2-1h-2.9c-.6,0-1.2.5-1.2,1.1,0,0,0,0,0,0v.2c.7,4.3,3.4,7.3,9,8.2v4.1c0,.7.5,1.2,1.4,1.4h2.6c.7,0,1.2-.5,1.4-1.4v-4.1c5.1-.9,8.5-4.4,8.5-9h0Z"/>
          <path id="Path_26-3" class="cls-4" d="M41.3,72.4c-12.4-4.5-18.8-18.3-14.3-30.7,2.4-6.7,7.7-11.9,14.3-14.3.6-.3,1-.9,1-1.6v-2.2c0-.6-.4-1.2-1-1.3-.2,0-.5,0-.6.2-15.2,4.8-23.6,21-18.8,36.1,2.8,9,9.9,16,18.8,18.8.5.3,1.1.1,1.3-.4,0,0,0-.2.1-.3.2-.2.2-.3.2-.6v-2.2c-.1-.6-.5-1.1-1-1.4ZM58.3,22.4c-.5-.3-1.1-.1-1.3.4,0,0,0,.2-.1.3-.2.2-.2.3-.2.6v2.2c0,.7.4,1.2,1,1.6,12.4,4.5,18.8,18.3,14.3,30.7-2.4,6.7-7.7,11.9-14.3,14.3-.6.3-1,.9-1,1.6v2.2c0,.6.4,1.2,1,1.3.2,0,.5,0,.6-.2,15.2-4.8,23.6-20.9,18.8-36.1,0,0,0,0,0-.1-2.8-9-9.8-16-18.8-18.9h0Z"/>
        </g>
      </g>
    </g>
    <g id="Layer_7" class="cls-20">
      <g id="Group_15-2">
        <rect id="Rectangle_9-2" class="cls-15" x=".5" width="99.1" height="100" rx="22.5" ry="22.5"/>
        <path id="Path_14-2" class="cls-18" d="M50.4,52.9h13.9c.3,0,.4,0,.5-.4.1-1.4.1-2.8,0-4.2,0-.3-.1-.4-.4-.4h-27.6c-.3,0-.4.1-.4.4v4.1q0,.5.5.5h13.6ZM63.2,43.2c0-.1,0-.2,0-.3-.2-.5-.5-1-.8-1.4-.5-.8-1-1.5-1.7-2.1-.3-.4-.7-.7-1.1-1-2-1.7-4.3-2.9-6.8-3.5-1.3-.3-2.6-.4-3.9-.4h-12.3c-.3,0-.4.1-.4.4v8.1c0,.3,0,.4.4.4h26.3s.2,0,.3-.2h-.1,0ZM63.2,57.7c-.4,0-.8,0-1.2,0h-25.3c-.3,0-.5,0-.5.5v7.9c0,.4,0,.5.5.5h11.7c.6,0,1.1,0,1.7-.1,1.7-.1,3.4-.5,5-1.1.6-.2,1.1-.5,1.7-.8h.2c2.7-1.4,5-3.7,6.4-6.4,0,0,.2-.3,0-.4h0ZM31.7,70.6v-12.6c0-.3,0-.3-.4-.3h-5c-.3,0-.4,0-.4-.4v-4.3h5.3c.3,0,.4,0,.4-.4v-4.3c0-.3,0-.3-.4-.3h-5c-.3,0-.4,0-.4-.4v-4c0-.3,0-.3.4-.3h4.9c.3,0,.4,0,.4-.4v-12.3c0-.4,0-.5.5-.5h17.1c1.2,0,2.5.2,3.7.4,2.5.5,4.9,1.4,7.1,2.6,1.5.9,2.8,1.9,4,3.1.9.9,1.7,2,2.4,3,.7,1.1,1.3,2.3,1.8,3.5,0,.3.4.5.7.5h4.1q.5,0,.5.5v3.7c0,.4-.1.5-.5.5h-3.2c-.3,0-.4,0-.4.4.1,1.4.1,2.8,0,4.2,0,.4,0,.4.4.4h3.6c.2.2,0,.4,0,.6,0,.3,0,.5,0,.8v2.8c0,.4-.1.5-.5.5h-4.3c-.3,0-.6.1-.7.4-1,2.7-2.7,5.1-4.8,7-.8.7-1.6,1.4-2.4,2-.9.5-1.8,1.1-2.7,1.5-1.7.8-3.5,1.3-5.4,1.7-1.8.3-3.6.5-5.3.4h-15.8Z"/>
      </g>
    </g>
    <g id="Layer_8" class="cls-20">
      <g id="Group_10-3">
        <rect id="Rectangle_2-3" class="cls-13" x=".5" y=".5" width="99.1" height="99.1" rx="22.5" ry="22.5"/>
        <path id="Path_2-3" class="cls-4" d="M71.6,44.9c.9-5.9-3.6-9-9.7-11.1l2-8-4.8-1.2-1.9,7.7c-1.3-.3-2.6-.6-3.9-.9l1.9-7.8-4.8-1.2-2,8c-1.1-.2-2.1-.5-3.1-.7h0s-6.7-1.7-6.7-1.7l-1.3,5.2s3.6.8,3.5.9c1.4.2,2.4,1.4,2.3,2.8l-2.3,9.1c.2,0,.3,0,.5.2h-.5c0-.1-3.2,12.6-3.2,12.6-.3.9-1.3,1.4-2.2,1.2,0,0,0,0,0,0,0,0-3.5-.9-3.5-.9l-2.4,5.5,6.3,1.6c1.2.3,2.3.6,3.5.9l-2,8.1,4.8,1.2,2-8c1.3.4,2.6.7,3.9,1l-2,7.9,4.8,1.2,2-8c8.3,1.6,14.5.9,17.1-6.5,2.1-6-.1-9.5-4.5-11.8,3.2-.7,5.6-2.8,6.2-7.1h0ZM60.5,60.5c-1.5,6-11.6,2.8-14.9,1.9l2.7-10.7c3.3.8,13.8,2.4,12.2,8.7ZM62,44.8c-1.4,5.5-9.8,2.7-12.5,2l2.4-9.7c2.7.7,11.5,2,10.1,7.7Z"/>
      </g>
    </g>
    <g id="Layer_9" class="cls-20">
      <g id="Group_9-3">
        <g id="Group_8-3">
          <rect id="Rectangle_4-3" class="cls-2" x=".5" y=".5" width="99.1" height="99.1" rx="22.5" ry="22.5"/>
          <g id="Symbols-3">
            <g id="Group_2-3">
              <path id="Fill-19-3" class="cls-5" d="M47.7,52.2c-5.6,0-10.1-4.5-10.1-10.1s4.5-10.1,10.1-10.1c5.6,0,10.1,4.5,10.1,10.1,0,5.6-4.5,10.1-10.1,10.1,0,0,0,0,0,0M47.7,26.9c8.4,0,15.2,6.8,15.2,15.2s-6.8,15.2-15.2,15.2-15.2-6.8-15.2-15.2h0c0-8.4,6.8-15.2,15.2-15.2ZM62.2,58.1c1,.9,1,2.5.1,3.4,0,0,0,0-.1.1l-10.1,10.1c-1,1-2.6,1-3.6,0-1-1-1-2.5,0-3.5l10.1-10.1c.9-1,2.5-1,3.4-.1,0,0,0,0,.1.1ZM68.1,29.5c0,1.4-1.1,2.5-2.5,2.5-1.4,0-2.5-1.1-2.5-2.5s1.1-2.5,2.5-2.5h0c1.4,0,2.5,1.1,2.5,2.5h0Z"/>
            </g>
          </g>
        </g>
      </g>
    </g>
    <g id="Layer_10" class="cls-20">
      <g id="Group_7-3">
        <rect id="Rectangle_5-3" class="cls-19" x=".5" y=".5" width="99.1" height="99.1" rx="22.5" ry="22.5"/>
        <path id="Path_5-3" class="cls-9" d="M34.4,63.1c-1.1-.8-1.8-2-1.8-3.4v-7.8c0-.9.7-1.6,1.6-1.7,0,0,0,0,0,0,.3,0,.6,0,.8.2l16.7,10.2c1,.6,1.6,1.7,1.6,2.9v8c0,1.1-.8,2-1.9,2,0,0,0,0,0,0-.4,0-.7-.1-1-.3l-15.9-10.2ZM59.3,48.4c1,.6,1.6,1.7,1.6,2.9v16.3c0,.5-.2.9-.6,1.2l-3.7,2.2s0,0-.1,0v-9.1c0-1.2-.6-2.2-1.5-2.9l-14.7-9.2v-10.2c0-.9.7-1.6,1.6-1.7,0,0,0,0,0,0,.3,0,.6,0,.8.2l16.7,10.2ZM66.6,36.3c1,.6,1.6,1.7,1.6,2.9v23.8c0,.5-.3.9-.7,1.2l-3.5,2v-16.6c0-1.2-.6-2.2-1.5-2.9l-15-9.4v-9.7c0-.3,0-.6.2-.8.4-.8,1.3-1,2.1-.6,0,0,0,0,0,0l16.7,10.2Z"/>
      </g>
    </g>
    <g id="Layer_11">
      <g id="Group_5-2">
        <path id="Rectangle_3-2" class="cls-21" d="M50,.5h0c27.3,0,49.5,22.2,49.5,49.5h0c0,27.3-22.2,49.5-49.5,49.5h0C22.7,99.5.5,77.3.5,50H.5C.5,22.7,22.7.5,50,.5Z"/>
        <path id="Path_1-2" class="cls-5" d="M27.5,57.2l2-4.8h2.1c0-.8,0-1.6,0-2.5,0-1,0-2,.1-3h-4.2l2-4.8h3.2c3-9.1,9.7-13.6,20.1-13.6,3.3,0,6.6.4,9.8,1.3v6c-2.9-1.2-6.1-1.9-9.2-1.8-6.2,0-10.3,2.7-12,8.2h18.6l-2,4.8h-17.8c-.1.8-.2,1.6-.1,2.4,0,1.1,0,2.2.1,3.1h15.5l-2,4.8h-12.4c1.3,3.3,3,5.6,4.9,6.9s4.7,1.9,8.2,1.9c2.9,0,5.7-.7,8.3-1.8v5.7c-3.3,1.1-6.8,1.6-10.3,1.5-10.4,0-17-4.8-19.8-14.3h-5Z"/>
      </g>
    </g>
    <g id="Layer_12" class="cls-20">
      <g id="Group_6">
        <rect id="Rectangle_11" class="cls-4" x=".9" y=".5" width="98.2" height="99.1" rx="49.1" ry="49.1"/>
        <g id="matic_cryptocurrency_logo_icon_131424">
          <path id="Path_6" class="cls-10" d="M44,46l6.2,13.7,9.2-5.3h0v-10.6l-15.3,2.2Z"/>
          <path id="Path_7" class="cls-8" d="M71.2,35.8l-5.7-2.2-6.1-.5v32.9l9.2,5.3,7.2-14.8-4.6-14.3v-6.4Z"/>
          <path id="Path_8" class="cls-10" d="M70.6,33.2l-2.1,5.3h0v32.9l9.2-5.3v-32.9h-7.1Z"/>
          <path id="Path_9" class="cls-11" d="M68.6,27.9l-9.2,5.3,9.2,5.3,9.2-5.3-9.2-5.3Z"/>
          <path id="Path_10" class="cls-8" d="M50.2,49.1h0l-9.2-10.3-18.4-5.6v32.9l9.2,5.3,2.6-18.2,6.6,1.2h0s9.2,5.3,9.2,5.3v-10.6h0Z"/>
          <path id="Path_11" class="cls-11" d="M31.8,27.9l-9.2,5.3,27.5,15.9,4.2-2.4,5-2.9-27.5-15.9Z"/>
          <path id="Path_12" class="cls-10" d="M31.8,49.1h0v22.3l9.2-5.3v-11.7l-9.2-5.3Z"/>
        </g>
      </g>
    </g>
  </g>
</svg>